HIERARCHY
ROOT Hips
{
	OFFSET -0.001795 -0.223333 0.028219
	CHANNELS 6 Xposition Yposition Zposition Zrotation Yrotation Xrotation 
	JOINT LeftUpLeg
	{
		OFFSET 0.069520 -0.091406 -0.006815
		CHANNELS 3 Zrotation Yrotation Xrotation
		JOINT LeftLeg
		{
			OFFSET 0.034277 -0.375199 -0.004496
			CHANNELS 3 Zrotation Yrotation Xrotation
			JOINT LeftFoot
			{
				OFFSET -0.013596 -0.397961 -0.043693
				CHANNELS 3 Zrotation Yrotation Xrotation
				JOINT LeftToe
				{
					OFFSET 0.026358 -0.055791 0.119288
					CHANNELS 3 Zrotation Yrotation Xrotation
					End Site
					{
						OFFSET 0.000000 0.000000 0.000000
					}
				}
			}
		}
	}
	JOINT RightUpLeg
	{
		OFFSET -0.067670 -0.090522 -0.004320
		CHANNELS 3 Zrotation Yrotation Xrotation
		JOINT RightLeg
		{
			OFFSET -0.038290 -0.382569 -0.008850
			CHANNELS 3 Zrotation Yrotation Xrotation
			JOINT RightFoot
			{
				OFFSET 0.015774 -0.398415 -0.042312
				CHANNELS 3 Zrotation Yrotation Xrotation
				JOINT RightToe
				{
					OFFSET -0.025372 -0.048144 0.123348
					CHANNELS 3 Zrotation Yrotation Xrotation
					End Site
					{
						OFFSET 0.000000 0.000000 0.000000
					}
				}
			}
		}
	}
	JOINT Spine
	{
		OFFSET -0.002533 0.108963 -0.026696
		CHANNELS 3 Zrotation Yrotation Xrotation
		JOINT Spine1
		{
			OFFSET 0.005487 0.135180 0.001092
			CHANNELS 3 Zrotation Yrotation Xrotation
			JOINT Spine2
			{
				OFFSET 0.001457 0.052922 0.025425
				CHANNELS 3 Zrotation Yrotation Xrotation
				JOINT Neck
				{
					OFFSET -0.002778 0.213870 -0.042857
					CHANNELS 3 Zrotation Yrotation Xrotation
					JOINT Head
					{
						OFFSET 0.005152 0.064970 0.051349
						CHANNELS 3 Zrotation Yrotation Xrotation
						End Site
						{
							OFFSET 0.000000 0.000000 0.000000
						}
					}
				}
				JOINT LeftShoulder
				{
					OFFSET 0.078845 0.121749 -0.034090
					CHANNELS 3 Zrotation Yrotation Xrotation
					JOINT LeftArm
					{
						OFFSET 0.090977 0.030469 -0.008868
						CHANNELS 3 Zrotation Yrotation Xrotation
						JOINT LeftForeArm
						{
							OFFSET 0.259612 -0.012772 -0.027456
							CHANNELS 3 Zrotation Yrotation Xrotation
							JOINT LeftHand
							{
								OFFSET 0.249234 0.008986 -0.001171
								CHANNELS 3 Zrotation Yrotation Xrotation
								End Site
								{
									OFFSET 0.000000 0.000000 0.000000
								}
							}
						}
					}
				}
				JOINT RightShoulder
				{
					OFFSET -0.081759 0.118833 -0.038615
					CHANNELS 3 Zrotation Yrotation Xrotation
					JOINT RightArm
					{
						OFFSET -0.096012 0.032551 -0.009143
						CHANNELS 3 Zrotation Yrotation Xrotation
						JOINT RightForeArm
						{
							OFFSET -0.253742 -0.013329 -0.021401
							CHANNELS 3 Zrotation Yrotation Xrotation
							JOINT RightHand
							{
								OFFSET -0.255298 0.007772 -0.005559
								CHANNELS 3 Zrotation Yrotation Xrotation
								End Site
								{
									OFFSET 0.000000 0.000000 0.000000
								}
							}
						}
					}
				}
			}
		}
	}
}
MOTION
Frames: 6
Frame Time: 0.050000
0.000000 0.951057 0.000000 -0.157370 3.700109 3.776156 5.938483 -0.270181 -2.471933 -1.991225 0.196261 0.172873 0.199613 3.422416 6.664549 0.000000 0.000000 0.000000 -6.148630 0.246410 -2.059471 0.548254 0.053437 3.605216 -4.500331 -12.435924 7.026883 0.000000 0.000000 0.000000 -0.748144 0.116181 -3.183296 0.752022 -0.209268 -3.264212 0.457435 -1.759803 8.689016 1.069740 0.094756 -11.406520 0.000000 0.000000 0.000000 -2.692080 -0.700339 0.034617 -25.997236 -12.723209 -0.944124 17.961770 -4.215434 -0.395528 0.000000 0.000000 0.000000 -0.763584 3.146895 1.120286 28.090978 9.587179 -1.019329 -13.973020 1.600615 0.186089 0.000000 0.000000 0.000000 
0.000400 0.949609 0.001216 -0.074668 3.929175 3.753791 5.792586 -0.260358 -2.216230 -1.730004 0.180159 -0.379635 -0.301666 2.404556 6.380281 0.000000 0.000000 0.000000 -6.622848 0.184859 -0.719266 1.022269 -0.068224 1.669266 -5.016518 -13.486897 6.830448 0.000000 0.000000 0.000000 -0.854371 0.121959 -3.440699 0.162734 0.049451 -3.181175 1.500792 -1.344145 8.428389 -0.006314 0.905997 -12.147568 0.000000 0.000000 0.000000 -2.696789 -0.602789 -0.015150 -26.719391 -13.233401 -0.834866 17.144688 -3.777317 -0.333970 0.000000 0.000000 0.000000 -0.780895 1.287703 0.490886 29.197952 8.579456 -1.232066 -14.402578 3.020157 0.066383 0.000000 0.000000 0.000000 
0.000642 0.948371 0.002343 0.002463 3.913499 3.385780 5.675224 -0.263077 -2.462940 -1.005291 0.070425 1.124430 -0.542129 1.615226 5.588199 0.000000 0.000000 0.000000 -7.143412 0.178626 -0.580102 1.935950 -0.183434 1.790800 -4.710859 -12.808451 6.497547 0.000000 0.000000 0.000000 0.255478 0.120602 -3.117025 -0.457255 0.364845 -4.474452 0.543212 -0.638968 9.687276 1.387090 0.041093 -11.986159 0.000000 0.000000 0.000000 -1.313717 -0.482932 0.043304 -28.206199 -13.915033 -0.762342 17.770817 -3.488247 -0.346674 0.000000 0.000000 0.000000 0.674781 0.845676 0.260467 28.750174 7.887993 -1.461642 -14.429941 0.570075 0.329097 0.000000 0.000000 0.000000 
0.000820 0.948044 0.003268 0.019939 4.451419 3.148261 6.056696 -0.260725 -2.215760 -1.664670 0.133596 1.448641 -0.818151 0.966270 5.234045 0.000000 0.000000 0.000000 -7.144416 0.132061 0.207128 2.016726 -0.207487 1.232658 -4.966120 -13.397935 7.226277 0.000000 0.000000 0.000000 0.092341 0.134126 -3.542058 -0.953019 0.557641 -3.547217 1.410195 -1.876266 9.636909 0.111194 0.831547 -12.576632 0.000000 0.000000 0.000000 -1.828858 0.020034 -0.156288 -30.445616 -13.675892 -0.836347 19.708115 -4.416517 -0.466846 0.000000 0.000000 0.000000 0.732722 1.234779 0.381334 29.418282 7.580111 -1.512920 -14.613465 0.041255 0.353279 0.000000 0.000000 0.000000 
0.000681 0.948321 0.003959 0.261283 4.539087 2.782997 6.053543 -0.246271 -1.951536 -2.023893 0.169171 1.662984 -1.114779 0.493885 5.407690 0.000000 0.000000 0.000000 -7.584756 0.124395 0.350157 2.053338 -0.206678 1.572483 -5.161533 -13.817619 7.417385 0.000000 0.000000 0.000000 -0.205162 0.114949 -3.117343 -0.470000 0.372710 -4.282351 0.946351 -1.673151 9.836211 0.603129 0.551206 -12.746021 0.000000 0.000000 0.000000 -2.277262 0.115644 -0.237952 -31.656599 -12.779079 -1.054540 19.779293 -6.004043 -0.702787 0.000000 0.000000 0.000000 2.161134 1.029615 0.229810 29.874103 7.067768 -1.660819 -14.303755 -0.204712 0.378890 0.000000 0.000000 0.000000 
0.000358 0.947993 0.004326 0.340987 4.922135 2.935453 5.816439 -0.268905 -2.456499 -1.917673 0.144659 2.172701 -1.235866 0.084557 4.992422 0.000000 0.000000 0.000000 -7.669192 0.119622 0.398655 2.085542 -0.219720 1.186587 -4.983349 -13.410055 7.232949 0.000000 0.000000 0.000000 -0.544277 0.121183 -3.456301 -0.445034 0.325955 -3.133507 1.543605 -2.645390 9.185865 0.039539 0.878541 -13.388888 0.000000 0.000000 0.000000 -2.013307 1.329814 -0.632934 -34.531525 -12.426329 -1.136512 19.159182 -7.316172 -0.795272 0.000000 0.000000 0.000000 1.603541 0.886693 0.188017 32.877167 7.606236 -1.590765 -14.328629 -0.664014 0.400579 0.000000 0.000000 0.000000 
